<svg height="461pt" viewBox="-11 0 461 461.48058" width="461pt" xmlns="http://www.w3.org/2000/svg"><path d="m423.050781 399.824219c10.6875 10.636719 12.367188 27.34375 4.011719 39.894531s-24.414062 17.449219-38.351562 11.695312c-13.9375-5.753906-21.863282-20.558593-18.929688-35.347656 2.933594-14.789062 15.914062-25.445312 30.992188-25.441406 8.355468-.019531 16.371093 3.289062 22.277343 9.199219zm0 0" fill="#00acea"/><path d="m410.421875 185.183594h.191406c-.003906 42.375-34.355469 76.722656-76.730469 76.722656h-227.421874c-42.375 0-76.726563-34.347656-76.730469-76.722656h.011719c-.011719-.699219-.011719-.789063-.011719-.789063v-.03125c-.007813-48.882812 36.535156-90.050781 85.070312-95.847656 15.070313-53.152344 67.015625-87.058594 121.738281-79.460937 54.71875 7.597656 95.464844 54.375 95.484376 109.621093 0 .46875 0 .9375-.011719 1.410157 4.167969-.734376 8.398437-1.050782 12.628906-.953126 17.496094 0 34.269531 6.964844 46.613281 19.359376 12.347656 12.394531 19.242188 29.199218 19.167969 46.691406zm-131.238281 18.972656v-57.75c0-11.046875-8.957032-20-20-20h-.582032v-20.691406c.003907-10.277344-4.054687-20.140625-11.289062-27.441406-7.152344-7.289063-16.929688-11.402344-27.140625-11.417969-21.34375.113281-38.554687 17.515625-38.429687 38.859375v20.691406h-.582032c-11.042968 0-20 8.953125-20 20v57.75c.003906 11.042969 8.957032 19.996094 20 20h78.023438c11.042968-.003906 19.996094-8.957031 20-20zm0 0" fill="#00efd1"/><path d="m219.171875 185.164062c.261719.027344.527344.042969.789063.039063 5.121093.046875 9.335937-4.011719 9.488281-9.132813.152343-5.117187-3.816407-9.417968-8.929688-9.675781-5.113281-.257812-9.496093 3.617188-9.863281 8.726563-.367188 5.105468 3.417969 9.570312 8.515625 10.042968zm60.011719-38.757812v57.75c-.003906 11.042969-8.957032 19.996094-20 20h-78.023438c-11.042968-.003906-19.996094-8.957031-20-20v-57.75c0-11.046875 8.957032-20 20-20h78.023438c11.042968 0 20 8.953125 20 20zm0 0" fill="#fedb41"/><path d="m258.601562 125.335938v1.070312h-76.859374v-20.691406c-.125-21.34375 17.085937-38.746094 38.429687-38.859375 10.210937.015625 19.988281 4.128906 27.140625 11.417969 7.234375 7.300781 11.292969 17.164062 11.289062 27.441406zm0 0" fill="#00efd1"/><path d="m242.460938 399.824219c10.691406 10.640625 12.375 27.351562 4.019531 39.90625-8.355469 12.558593-24.421875 17.457031-38.363281 11.703125-13.941407-5.753906-21.875-20.558594-18.941407-35.355469 2.933594-14.792969 15.914063-25.453125 30.996094-25.453125 8.359375-.019531 16.378906 3.289062 22.289063 9.199219zm0 0" fill="#00acea"/><path d="m219.171875 185.164062c-5.007813-.46875-8.722656-4.855468-8.363281-9.871093.363281-5.019531 4.667968-8.828125 9.691406-8.570313 5.027344.253906 8.925781 4.476563 8.777344 9.503906-.144532 5.027344-4.285156 9.015626-9.316406 8.976563-.261719.003906-.527344-.011719-.789063-.039063zm0 0" fill="#fedb41"/><path d="m61.863281 399.824219c10.683594 10.636719 12.367188 27.34375 4.011719 39.894531s-24.414062 17.449219-38.351562 11.695312c-13.933594-5.75-21.863282-20.550781-18.933594-35.339843 2.929687-14.789063 15.90625-25.445313 30.980468-25.449219 8.359376-.019531 16.382813 3.289062 22.292969 9.199219zm0 0" fill="#00acea"/><g fill="#083863"><path d="m220.171875 382.625c-18.792969.039062-34.945313 13.339844-38.585937 31.78125-3.640626 18.4375 6.25 36.878906 23.621093 44.054688 17.371094 7.175781 37.390625 1.085937 47.824219-14.546876 10.433594-15.632812 8.378906-36.457031-4.914062-49.746093-7.398438-7.425781-17.460938-11.582031-27.945313-11.542969zm16.632813 56.121094c-7.941407 7.996094-20.421876 9.261718-29.804688 3.023437-9.382812-6.234375-13.050781-18.234375-8.757812-28.648437 4.296874-10.417969 15.351562-16.34375 26.402343-14.15625 11.054688 2.1875 19.015625 11.882812 19.015625 23.148437.03125 6.238281-2.441406 12.226563-6.855468 16.632813zm0 0"/><path d="m400.773438 382.625c-18.804688.03125-34.972657 13.335938-38.617188 31.785156-3.648438 18.445313 6.242188 36.902344 23.621094 44.082032 17.378906 7.179687 37.414062 1.089843 47.851562-14.550782 10.4375-15.644531 8.378906-36.480468-4.921875-49.773437-7.394531-7.421875-17.457031-11.578125-27.933593-11.542969zm16.621093 56.121094c-7.9375 7.976562-20.40625 9.230468-29.773437 2.996094-9.367188-6.238282-13.023438-18.222657-8.730469-28.625 4.296875-10.402344 15.34375-16.316407 26.378906-14.128907 11.039063 2.1875 18.992188 11.875 18.992188 23.125.027343 6.242188-2.445313 12.230469-6.867188 16.632813zm0 0"/><path d="m39.570312 382.625c-18.792968.039062-34.945312 13.339844-38.585937 31.78125-3.636719 18.4375 6.25 36.878906 23.621094 44.054688 17.371093 7.175781 37.390625 1.085937 47.824219-14.546876 10.433593-15.632812 8.378906-36.457031-4.910157-49.746093-7.398437-7.425781-17.464843-11.582031-27.949219-11.542969zm16.632813 56.121094c-7.9375 7.996094-20.421875 9.261718-29.804687 3.023437-9.382813-6.234375-13.050782-18.234375-8.753907-28.648437 4.292969-10.417969 15.351563-16.34375 26.402344-14.15625s19.015625 11.882812 19.015625 23.148437c.027344 6.238281-2.441406 12.226563-6.859375 16.632813zm0 0"/><path d="m333.882812 269.804688c46.761719-.027344 84.667969-37.910157 84.730469-84.671876 0-.609374-.074219-1.21875-.214843-1.8125-.964844-40.074218-33.671876-72.085937-73.757813-72.199218-1.578125 0-3.199219.023437-4.851563.085937-3.59375-56.71875-46.882812-102.933593-103.242187-110.226562-56.363281-7.289063-109.988281 26.386719-127.894531 80.324219-50.253906 8.542968-86.992188 52.117187-86.921875 103.089843v.5.242188c.0625 46.757812 37.972656 84.640625 84.730469 84.667969h105.710937v44h-148.429687c-15.664063 0-28.570313 12.339843-28.570313 28v23.320312c0 4.417969 3.582031 8 8 8s8-3.582031 8-8v-23.320312c0-6.835938 5.726563-12 12.570313-12h148.429687v35.320312c0 4.417969 3.582031 8 8 8s8-3.582031 8-8v-35.320312h148.21875c6.84375 0 12.78125 5.164062 12.78125 12v23.320312c0 4.417969 3.582031 8 8 8s8-3.582031 8-8v-23.320312c0-15.660157-13.113281-28-28.78125-28h-148.21875v-44zm-296.148437-84.292969c.007813-.160157.007813-.296875.007813-.464844l-.011719-.695313c-.066407-44.847656 33.464843-82.632812 78-87.898437 3.214843-.375 5.886719-2.648437 6.769531-5.761719 13.988281-49.300781 62.175781-80.75 112.9375-73.703125 50.761719 7.050781 88.558594 50.4375 88.585938 101.683594 0 .414063 0 .828125-.007813 1.242187-.054687 2.425782 1 4.746094 2.859375 6.304688 1.863281 1.554688 4.328125 2.1875 6.707031 1.707031 3.652344-.625 7.355469-.890625 11.058594-.792969 31.972656.113282 57.820313 26.082032 57.78125 58.050782 0 .539062.058594 1.074218.171875 1.601562-.949219 37.273438-31.425781 67-68.710938 67.019532h-227.421874c-37.777344-.019532-68.46875-30.511719-68.726563-68.292969zm0 0"/><path d="m265.171875 120.183594v-14.46875c.105469-12.097656-4.609375-23.742188-13.101563-32.359375-8.324218-8.632813-19.804687-13.507813-31.796874-13.5-25.050782 0-45.109376 20.570312-45.109376 45.859375v14.464844c-12.203124 2.863281-20.871093 13.691406-20.992187 26.226562v57.75c.019531 7.121094 2.878906 13.9375 7.949219 18.941406 5.066406 5.003906 11.921875 7.777344 19.039062 7.707032h78.023438c7.117187.070312 13.972656-2.703126 19.039062-7.707032 5.070313-5.003906 7.929688-11.820312 7.949219-18.941406v-57.75c-.121094-12.539062-8.792969-23.367188-21-26.222656zm-44.785156-46.328125c8.25.007812 16.136719 3.378906 21.839843 9.339843 5.859376 6.015626 9.082032 14.121094 8.945313 22.519532v14.089844h-62v-14.089844c0-17.566406 13.882813-31.859375 31.214844-31.859375zm51.785156 130.949219c0 7.179687-5.820313 13-13 13h-78c-7.179687 0-13-5.820313-13-13v-58c0-7.179688 5.820313-13 13-13h78c7.179687 0 13 5.820312 13 13zm0 0"/><path d="m219.960938 159.554688c-7.460938-.011719-13.980469 5.050781-15.820313 12.28125-1.839844 7.234374 1.46875 14.792968 8.03125 18.351562v9.617188c0 3.867187 3.132813 7 7 7s7-3.132813 7-7v-8.835938c7.207031-2.964844 11.308594-10.613281 9.796875-18.257812-1.507812-7.644532-8.214844-13.15625-16.007812-13.15625zm0 14c1.101562.003906 2.050781.78125 2.273437 1.863281.21875 1.078125-.347656 2.167969-1.359375 2.605469-.554688-.144532-1.128906-.214844-1.703125-.21875-.152344 0-.300781.011718-.453125.023437-.878906-.550781-1.285156-1.613281-.996094-2.609375.292969-.992188 1.203125-1.671875 2.238282-1.664062zm0 0"/></g></svg>